<svg width="641" height="643" viewBox="0 0 641 643" fill="none" xmlns="http://www.w3.org/2000/svg">
<path d="M418.845 571.554L345.803 297.794L582.481 409.24L456.21 426.145L418.845 571.554Z" fill="#FFC31D" stroke="#4469AE" stroke-width="20"/>
<circle cx="500.209" cy="480.117" r="333.618" stroke="#FFD050" stroke-opacity="0.48" stroke-width="18"/>
<rect x="4" y="499.968" width="130.126" height="107.386" rx="27" stroke="#4469AE" stroke-width="8"/>
<line x1="90.1354" y1="498.814" x2="135.538" y2="529.036" stroke="#4469AE" stroke-width="8"/>
<path d="M121.464 397.712C121.312 397.8 121.15 397.894 120.975 397.991C119.413 398.86 116.91 400.085 113.322 401.37C106.15 403.938 94.6087 406.761 77.5359 407.44C60.6162 408.113 49.4421 405.304 42.6287 402.481C39.2152 401.067 36.8694 399.638 35.4226 398.613C35.1366 398.41 34.8864 398.222 34.6687 398.053L34.6687 295.981C37.6454 296.763 41.7256 297.787 46.3611 298.809C55.8453 300.901 67.9576 303.065 77.6951 303.065C87.4324 303.065 99.544 300.901 109.028 298.809C113.682 297.783 117.777 296.755 120.757 295.972L121.464 397.712Z" stroke="#4469AE" stroke-width="8"/>
<path d="M77.6958 283.18C90.4381 283.18 101.833 284.556 109.921 286.703C113.995 287.785 117.003 289.004 118.899 290.194C120.056 290.92 120.49 291.43 120.647 291.665C120.49 291.9 120.057 292.411 118.899 293.138C117.003 294.328 113.995 295.547 109.921 296.628C101.833 298.776 90.4381 300.152 77.6958 300.152C64.9534 300.152 53.5576 298.776 45.4692 296.628C41.3959 295.547 38.3872 294.328 36.4917 293.138C35.3331 292.411 34.9007 291.9 34.7437 291.665C34.901 291.43 35.334 290.92 36.4917 290.194C38.3872 289.004 41.3959 287.785 45.4692 286.703C53.5576 284.556 64.9534 283.18 77.6958 283.18Z" stroke="#4469AE" stroke-width="8"/>
<path d="M77.6941 390.465C90.4364 390.465 101.831 391.841 109.92 393.988C113.993 395.07 117.002 396.289 118.897 397.478C120.055 398.205 120.488 398.715 120.645 398.95C120.488 399.185 120.056 399.696 118.897 400.423C117.002 401.613 113.993 402.832 109.92 403.913C101.831 406.061 90.4364 407.436 77.6941 407.436C64.9517 407.436 53.5559 406.061 45.4675 403.913C41.3942 402.831 38.3855 401.613 36.49 400.423C35.3314 399.695 34.8989 399.185 34.7419 398.95C34.8993 398.715 35.3323 398.205 36.49 397.478C38.3855 396.289 41.3942 395.07 45.4675 393.988C53.5559 391.841 64.9517 390.465 77.6941 390.465Z" stroke="#4469AE" stroke-width="8"/>
<path d="M544.838 24.417C548.63 17.4742 558.601 17.4742 562.392 24.417L601.73 96.4521C605.369 103.116 600.546 111.245 592.954 111.245L514.277 111.245C506.684 111.245 501.862 103.116 505.5 96.4521L544.838 24.417Z" stroke="#4469AE" stroke-width="8"/>
<rect x="129.843" y="116.095" width="102.341" height="102.341" rx="9" stroke="#4469AE" stroke-width="8"/>
<circle cx="363.24" cy="70.3124" r="53.6224" stroke="#4469AE" stroke-width="8"/>
</svg>
