<svg width="693" height="730" viewBox="0 0 693 730" fill="none" xmlns="http://www.w3.org/2000/svg">
<path d="M319.992 145.585L331.809 136.495L348.172 133.768L369.079 141.949L382.715 142.858H397.26L402.714 126.495L397.26 109.224L374.534 105.588L363.625 100.133L356.353 76.4985L344.536 61.9539L335.445 54.6817H319.992L309.992 44.6823L266.359 59.2268L251.814 141.949L259.086 142.858L272.722 137.404L289.993 136.495L295.448 141.949L299.084 147.403L304.538 154.675L303.629 177.401H299.084L296.357 154.675L288.175 143.767L264.541 147.403L260.904 152.857L271.813 149.221L281.812 147.403L289.993 151.039L295.448 157.403L291.812 156.494L283.63 160.13L276.358 157.403V152.857L264.541 157.403L258.177 158.312L266.359 166.493L281.812 168.311L289.993 167.402L283.63 171.038L266.359 169.22L251.814 160.13L249.996 175.583L253.632 220.126L270.904 261.032L310.901 289.213L311.81 303.757L318.174 333.755L259.995 381.025V393.751L248.178 401.933L254.541 415.568L242.724 421.932L248.178 431.931L236.36 441.021L239.088 430.113L226.361 418.295L217.271 388.297L224.543 371.935L219.089 357.39L226.361 347.391L214.544 313.756L212.726 289.213L204.544 279.213L201.817 266.487L209.089 244.67L206.362 218.308L220.907 191.946L216.362 172.856L231.815 146.494L227.27 121.95L243.633 95.5882V75.5895L259.086 51.0455L290.903 18.3203L319.992 7.41189L356.353 4.68478L392.714 9.22996L428.167 22.8655L456.347 44.6823L479.982 79.2256L490.89 130.132L492.708 209.218L499.98 295.576L509.071 355.572L548.159 404.66L576.339 419.204L599.065 431.931L615.428 451.021L658.141 552.832L692.684 669.188V729.184H266.347L270.892 663.734L311.799 592.829L361.807 511.016L415.429 475.565L476.334 454.656L502.696 448.294L535.421 443.747H509.071L485.424 448.294L411.804 468.292L502.696 434.658L550.886 428.295L512.707 421.932L425.44 452.839L370.898 501.927L361.807 500.109L273.631 488.291L239.088 475.565L217.271 448.294L212.714 465.564L233.622 483.745L290.891 504.653L356.341 511.016L304.527 592.829L262.711 661.007L250.893 729.184H0L9.99938 674.642L33.6343 635.554L66.3595 611.919L92.7215 583.739L96.3576 557.377L114.538 541.014V509.198L128.174 475.565L148.173 468.292L156.365 444.657L181.818 418.295L219.998 387.388L230.906 426.477L224.543 430.113L222.725 434.658L244.542 468.292L276.358 480.11L373.625 491.018L427.258 434.658L423.622 421.932L427.258 410.114L425.44 404.66L427.258 396.479L425.44 390.115L429.985 378.298L425.44 371.935L429.076 360.117L425.44 355.572L429.076 347.391L421.803 341.937L425.44 336.482L416.349 330.119L411.804 324.665L414.531 313.756L409.986 303.757L397.26 313.756L363.625 324.665L333.627 313.756L311.81 303.757L310.901 289.213L359.989 274.668L374.534 253.76V211.945L402.714 175.583L408.168 164.675L406.35 155.584L394.532 150.13L381.806 155.584H378.17L376.352 154.675L368.17 167.402L359.08 171.947L342.717 170.129H358.171L365.443 166.493L374.534 155.584L373.625 154.675H366.352L363.625 158.312L356.353 159.221L350.899 156.494L349.99 151.039L335.445 154.675L344.536 148.312L358.171 146.494L370.898 151.948L357.262 142.858L338.172 145.585L328.173 156.494L322.719 216.49L324.537 218.308L329.082 217.399L330.9 213.763L329.991 208.308L333.627 212.854V218.308L331.809 224.671L326.355 226.489L320.901 228.307L317.719 230.125L313.628 231.262L312.719 242.852L342.717 238.307L336.354 244.67L313.628 247.397L292.721 243.761L286.357 238.307H289.993L311.81 242.852L312.719 231.262L310.901 230.58L307.265 229.216L303.629 228.307L300.902 224.671L296.357 221.035L294.539 216.49L301.811 219.217L304.538 211.036L305.447 218.308L312.719 221.035L319.992 216.49V145.585Z" fill="#4469AE"/>
<path d="M316.183 223.761C282.709 223.927 295.021 178.438 320.889 178.31C346.756 178.182 356.636 201.606 356.745 223.761C356.935 262.15 330.227 283.043 295.436 285.576C248.285 289.008 196.266 235.289 195.981 177.863C195.538 88.289 262.411 6.96921 356.745 6.50225C460.49 5.9887 610.954 92.8809 613.402 281.368C615.85 469.854 459.997 636.397 356.746 680.097C288.727 708.884 226.037 716.848 192.5 722.685" stroke="#FFC31D" stroke-opacity="0.87" stroke-width="13"/>
</svg>
